<?xml version="1.0" encoding="UTF-8" standalone="no"?>
<svg
   width="24"
   height="24"
   version="1.1"
   id="svg19"
   sodipodi:docname="icon-facebook_red.svg"
   inkscape:version="1.1.1 (3bf5ae0d25, 2021-09-20)"
   xmlns:inkscape="http://www.inkscape.org/namespaces/inkscape"
   xmlns:sodipodi="http://sodipodi.sourceforge.net/DTD/sodipodi-0.dtd"
   xmlns="http://www.w3.org/2000/svg"
   xmlns:svg="http://www.w3.org/2000/svg">
  <defs
     id="defs23" />
  <sodipodi:namedview
     id="namedview21"
     pagecolor="#ffffff"
     bordercolor="#666666"
     borderopacity="1.0"
     inkscape:pageshadow="2"
     inkscape:pageopacity="0.0"
     inkscape:pagecheckerboard="0"
     showgrid="false"
     inkscape:zoom="44.416667"
     inkscape:cx="11.988743"
     inkscape:cy="11.898687"
     inkscape:window-width="2160"
     inkscape:window-height="1346"
     inkscape:window-x="-11"
     inkscape:window-y="-11"
     inkscape:window-maximized="1"
     inkscape:current-layer="svg19" />
  <path
     fill="#8385A9"
     d="M22.675 0H1.325C.593 0 0 .593 0 1.325v21.351C0 23.407.593 24 1.325 24H12.82v-9.294H9.692v-3.622h3.128V8.413c0-3.1 1.893-4.788 4.659-4.788 1.325 0 2.463.099 2.795.143v3.24l-1.918.001c-1.504 0-1.795.715-1.795 1.763v2.313h3.587l-.467 3.622h-3.12V24h6.116c.73 0 1.323-.593 1.323-1.325V1.325C24 .593 23.407 0 22.675 0z"
     id="path17" />
  <path
     style="fill:#d40000;stroke-width:0.0225141"
     d="M 0.99843075,23.944046 C 0.80249451,23.892682 0.70467447,23.844189 0.52588456,23.709791 0.30067241,23.540497 0.13104688,23.284642 0.05010228,22.992151 0.01356588,22.860126 0.01125704,22.206786 0.01125704,12 0.01125704,1.7073206 0.01330031,1.1408221 0.05091552,1.0046759 0.17216325,0.56582618 0.51447386,0.20419872 0.93339906,0.07239312 L 1.0919325,0.02251407 H 12 22.908068 L 23.0666,0.07239312 c 0.418926,0.1318056 0.761237,0.49343306 0.882484,0.93228278 0.03762,0.1361462 0.03966,0.7026447 0.03966,10.9953241 0,10.292679 -0.002,10.859178 -0.03966,10.995323 -0.119365,0.432038 -0.453908,0.790138 -0.870538,0.931839 l -0.147964,0.05032 -3.180113,0.006 -3.180113,0.006 v -4.638279 -4.638277 h 1.564728 c 1.406056,0 1.564728,-0.0036 1.564728,-0.0353 0,-0.01942 0.101314,-0.819103 0.225141,-1.777079 0.123827,-0.957976 0.225141,-1.762727 0.225141,-1.788336 v -0.04656 h -1.791398 -1.791399 l 0.0092,-1.3902439 c 0.01028,-1.5602967 0.01112,-1.5695194 0.174768,-1.9151642 0.120991,-0.2555464 0.29192,-0.4260367 0.544571,-0.5431758 0.385599,-0.1787786 0.629787,-0.2039048 1.98188,-0.20393 l 1.007504,-1.89e-5 V 5.3840513 3.7549693 L 20.020638,3.72955 C 18.994693,3.630968 17.551252,3.5871771 16.964353,3.63683 15.80954,3.734529 14.882933,4.1176626 14.168733,4.7927626 13.453734,5.4686183 13.04302,6.3289731 12.861584,7.5309572 12.832254,7.725264 12.824254,8.06099 12.816644,9.4165107 l -0.0093,1.6491553 H 11.244222 9.6810507 v 1.82364 1.82364 h 1.5647283 1.564728 v 4.637898 4.637899 l -5.8255164,-0.0012 c -5.6217743,-0.0012 -5.8311483,-0.0027 -5.98655985,-0.04346 z"
     id="path160" />
</svg>
